<svg xmlns="http://www.w3.org/2000/svg" version="1.1" xmlns:xlink="http://www.w3.org/1999/xlink" xmlns:svgjs="http://svgjs.dev/svgjs" width="1440" height="560" preserveAspectRatio="none" viewBox="0 0 1440 560"><g mask="url(&quot;#SvgjsMask1000&quot;)" fill="none"><rect width="1440" height="560" x="0" y="0" fill="#0e2a47"></rect><path d="M0 234.27L10 179.15L20 214.02L30 219.23L40 281.81L50 311.76L60 304.88L70 282.87L80 292.89L90 345.73L100 302.19L110 346.84L120 328.48L130 391.43L140 387.32L150 395.03L160 395.45L170 442.66L180 481.05L190 502.99L200 487L210 425.24L220 452.6L230 391.97L240 448.36L250 466.38L260 481.48L270 458.82L280 511.76L290 466.72L300 486.36L310 437.43L320 471.68L330 531.13L340 536.06L350 466.21L360 466.26L370 488.3L380 548.65L390 558.8L400 501.52L410 442.36L420 421.56L430 375.23L440 323.15L450 356.21L460 347.96L470 371.26L480 400.32L490 391.32L500 331.42L510 357.99L520 360.94L530 314.84L540 270.4L550 338.91L560 366.64L570 376.12L580 376.94L590 332.03L600 290.76L610 278.64L620 280.1L630 218.44L640 287.34L650 251.14L660 202.35L670 213.85L680 240.01L690 282.38L700 351.03L710 398.95L720 347.3L730 391.38L740 426.53L750 478.53L760 461.96L770 452.14L780 438.79L790 432.05L800 383.79L810 317L820 256.6L830 218.6L840 253.75L850 278.15L860 226.09L870 286.09L880 344.18L890 393.36L900 354.03L910 410.81L920 429.23L930 459.13L940 398.07L950 380.71L960 322.05L970 290.88L980 313.98L990 368.63L1000 405.02L1010 383.71L1020 317.66L1030 266.5L1040 218.67L1050 223.72L1060 263.47L1070 258.04L1080 294.63L1090 356.95L1100 322.74L1110 256.25L1120 207.22L1130 148.74L1140 185.11L1150 200.99L1160 169.99L1170 104.57L1180 136.89L1190 168.73L1200 233.34L1210 196.15L1220 212.13L1230 181.09L1240 216.03L1250 161.04L1260 192.53L1270 170.84L1280 191.11L1290 185.27L1300 159.68L1310 121.23L1320 80.94L1330 117.3L1340 120.18L1350 53.52L1360 8.81L1370 7.61L1380 41.13L1390 45.47L1400 68.65L1410 117.6L1420 117.86L1430 170.46L1440 164.66" stroke="#224b75" stroke-width="2"></path><path d="M0 234.27L10 179.15L20 214.02L30 219.23L40 281.81L50 311.76L60 304.88L70 282.87L80 292.89L90 345.73L100 302.19L110 346.84L120 328.48L130 391.43L140 387.32L150 395.03L160 395.45L170 442.66L180 481.05L190 502.99L200 487L210 425.24L220 452.6L230 391.97L240 448.36L250 466.38L260 481.48L270 458.82L280 511.76L290 466.72L300 486.36L310 437.43L320 471.68L330 531.13L340 536.06L350 466.21L360 466.26L370 488.3L380 548.65L390 558.8L400 501.52L410 442.36L420 421.56L430 375.23L440 323.15L450 356.21L460 347.96L470 371.26L480 400.32L490 391.32L500 331.42L510 357.99L520 360.94L530 314.84L540 270.4L550 338.91L560 366.64L570 376.12L580 376.94L590 332.03L600 290.76L610 278.64L620 280.1L630 218.44L640 287.34L650 251.14L660 202.35L670 213.85L680 240.01L690 282.38L700 351.03L710 398.95L720 347.3L730 391.38L740 426.53L750 478.53L760 461.96L770 452.14L780 438.79L790 432.05L800 383.79L810 317L820 256.6L830 218.6L840 253.75L850 278.15L860 226.09L870 286.09L880 344.18L890 393.36L900 354.03L910 410.81L920 429.23L930 459.13L940 398.07L950 380.71L960 322.05L970 290.88L980 313.98L990 368.63L1000 405.02L1010 383.71L1020 317.66L1030 266.5L1040 218.67L1050 223.72L1060 263.47L1070 258.04L1080 294.63L1090 356.95L1100 322.74L1110 256.25L1120 207.22L1130 148.74L1140 185.11L1150 200.99L1160 169.99L1170 104.57L1180 136.89L1190 168.73L1200 233.34L1210 196.15L1220 212.13L1230 181.09L1240 216.03L1250 161.04L1260 192.53L1270 170.84L1280 191.11L1290 185.27L1300 159.68L1310 121.23L1320 80.94L1330 117.3L1340 120.18L1350 53.52L1360 8.81L1370 7.61L1380 41.13L1390 45.47L1400 68.65L1410 117.6L1420 117.86L1430 170.46L1440 164.66L1440 560L0 560z" fill="url(&quot;#SvgjsLinearGradient1001&quot;)"></path></g><defs><mask id="SvgjsMask1000"><rect width="1440" height="560" fill="#ffffff"></rect></mask><linearGradient x1="50%" y1="0%" x2="50%" y2="100%" id="SvgjsLinearGradient1001"><stop stop-opacity="0.65" stop-color="#224b75" offset="0"></stop><stop stop-opacity="0" stop-color="#508dcc" offset="0.8"></stop></linearGradient></defs></svg>