<svg xmlns="http://www.w3.org/2000/svg" version="1.1" xmlns:xlink="http://www.w3.org/1999/xlink" xmlns:svgjs="http://svgjs.dev/svgjs" width="1440" height="560" preserveAspectRatio="none" viewBox="0 0 1440 560"><g mask="url(&quot;#SvgjsMask1000&quot;)" fill="none"><rect width="1440" height="560" x="0" y="0" fill="#0e2a47"></rect><path d="M0,623.553C117.732,637.635,248.927,600.845,331.377,515.633C410.871,433.476,378.173,298.089,418.439,191.095C454.827,94.406,555.079,23.441,555.488,-79.867C555.912,-187.019,497.539,-289.866,420.638,-364.485C346.704,-436.225,236.434,-441.821,141.423,-481.644C31.717,-527.626,-63.659,-635.747,-181.075,-616.684C-298.933,-597.549,-371.07,-479.413,-445.816,-386.302C-518.105,-296.252,-580.683,-199.784,-606.16,-87.153C-633.099,31.942,-658.107,167.253,-594.622,271.555C-531.956,374.511,-387.788,380.623,-284.07,442.021C-185.371,500.448,-113.884,609.932,0,623.553" fill="#0b2239"></path><path d="M1440 863.53C1497.317 854.821 1549.835 836.847 1602.87 813.4300000000001 1665.479 785.7860000000001 1744.556 774.08 1777.924 714.325 1811.435 654.313 1794.3809999999999 577.0360000000001 1770.959 512.415 1750 454.587 1689.876 424.437 1654.594 374.053 1613.635 315.56100000000004 1610.991 226.38799999999998 1547.621 193.47699999999998 1483.842 160.35399999999998 1404.108 183.469 1336.964 209.09300000000002 1273.004 233.503 1221.542 280.224 1179.251 334.06 1138.466 385.978 1115.379 446.935 1099.739 511.078 1082.67 581.079 1057.943 655.3679999999999 1084.5819999999999 722.314 1111.575 790.15 1174.028 841.325 1241.878 868.283 1304.538 893.179 1373.34 873.659 1440 863.53" fill="#113255"></path></g><defs><mask id="SvgjsMask1000"><rect width="1440" height="560" fill="#ffffff"></rect></mask></defs></svg>